<?xml version="1.0" encoding="iso-8859-1"?>
<!-- Generator: Adobe Illustrator 19.0.0, SVG Export Plug-In . SVG Version: 6.00 Build 0)  -->
<svg version="1.1" id="Layer_1" xmlns="http://www.w3.org/2000/svg" xmlns:xlink="http://www.w3.org/1999/xlink" x="0px" y="0px"
	 viewBox="0 0 392.598 392.598" style="enable-background:new 0 0 392.598 392.598;" xml:space="preserve">
<path style="fill:#FFFFFF;" d="M370.747,119.846c0-54.044-40.404-98.004-90.053-98.004c-36.461,0-61.026,11.313-75.119,34.457
	c-3.943,7.046-13.899,7.24-18.618,0c-14.093-23.208-38.659-34.457-75.119-34.457c-49.713,0-90.117,43.96-90.117,98.004
	c0,79.903,140.412,215.467,174.416,247.014C230.141,334.86,370.747,197.487,370.747,119.846z"/>
<path style="fill:violet;" d="M280.242,40.848c-22.562,0.129-43.636,12.8-56.242,33.939c-12.606,21.01-43.055,21.269-55.855,0.323
	l0,0c-12.8-20.816-33.875-33.228-56.695-33.228c-37.624,0.259-68.008,34.521-67.749,76.606
	c0.323,53.333,87.014,153.018,153.859,216.178c69.172-67.814,151.79-168.792,151.467-218.053
	C348.638,74.788,318.061,40.848,280.242,40.848z"/>
<g>
	<path style="fill:#194F82;" d="M280.695,0.056c-37.301,0-65.681,10.796-84.428,32.194c-18.747-21.398-47.127-32.194-84.428-32.194
		C50.166,0.056,0,53.842,0,119.846C0,219.919,181.269,382.957,189.026,389.81c4.331,3.685,10.408,3.62,14.61-0.065
		c7.758-6.982,188.962-172.477,188.962-269.899C392.533,53.842,342.368,0.056,280.695,0.056z M196.202,366.86
		C162.263,335.248,21.786,199.749,21.786,119.846c0-54.044,40.404-98.004,90.053-98.004c36.461,0,61.026,11.313,75.119,34.457
		c4.719,7.24,14.675,7.046,18.618,0c14.093-23.208,38.659-34.457,75.119-34.457c49.713,0,90.053,43.96,90.053,98.004
		C370.683,197.487,230.012,334.86,196.202,366.86z"/>
	<path style="fill:#194F82;" d="M246.497,190.246l-32.194-1.099l32.453-59.345c2.844-5.236,0.905-11.895-4.331-14.869
		c-5.236-2.844-11.895-0.905-14.739,4.331l-40.986,74.861c-3.814,6.788,0.388,15.386,9.18,16.162l49.842,1.681
		c0.129,0,0.259,0,0.388,0c5.883,0,10.667-4.655,10.925-10.537C257.228,195.483,252.509,190.44,246.497,190.246z"/>
	<path style="fill:#194F82;" d="M99.038,185.398H80.162c-6.012,0-10.925,4.848-10.925,10.925c0,6.077,4.848,10.925,10.925,10.925
		h18.877c6.012,0,10.925-4.848,10.925-10.925C109.964,190.311,105.115,185.398,99.038,185.398z"/>
	<path style="fill:#194F82;" d="M312.307,185.398H293.43c-6.012,0-10.925,4.848-10.925,10.925c0,6.077,4.849,10.925,10.925,10.925
		h18.877c6.012,0,10.925-4.848,10.925-10.925C323.232,190.311,318.384,185.398,312.307,185.398z"/>
	<path style="fill:#194F82;" d="M196.267,110.085c6.012,0,10.925-4.848,10.925-10.925V80.283c0-6.012-4.848-10.925-10.925-10.925
		c-6.012,0-10.925,4.848-10.925,10.925v18.877C185.341,105.172,190.255,110.085,196.267,110.085z"/>
	<path style="fill:#194F82;" d="M196.267,282.626c-6.012,0-10.925,4.848-10.925,10.925v18.877c0,6.012,4.848,10.925,10.925,10.925
		c6.077,0,10.925-4.849,10.925-10.925v-18.877C207.192,287.475,202.279,282.626,196.267,282.626z"/>
</g>
<g>
</g>
<g>
</g>
<g>
</g>
<g>
</g>
<g>
</g>
<g>
</g>
<g>
</g>
<g>
</g>
<g>
</g>
<g>
</g>
<g>
</g>
<g>
</g>
<g>
</g>
<g>
</g>
<g>
</g>
</svg>
